<?xml version="1.0" encoding="UTF-8" standalone="no"?>
<!-- Created with Inkscape (http://www.inkscape.org/) -->

<svg
   xmlns:dc="http://purl.org/dc/elements/1.1/"
   xmlns:cc="http://creativecommons.org/ns#"
   xmlns:rdf="http://www.w3.org/1999/02/22-rdf-syntax-ns#"
   xmlns:svg="http://www.w3.org/2000/svg"
   xmlns="http://www.w3.org/2000/svg"
   xmlns:sodipodi="http://sodipodi.sourceforge.net/DTD/sodipodi-0.dtd"
   xmlns:inkscape="http://www.inkscape.org/namespaces/inkscape"
   width="43.476856mm"
   height="30.93199mm"
   viewBox="0 0 154.05185 109.60153"
   id="svg2"
   version="1.1"
   inkscape:version="0.91 r13725"
   sodipodi:docname="plexo_p.svg"
   inkscape:export-filename="/home/dcantor/www/plexo/plexo_min.png"
   inkscape:export-xdpi="26.277"
   inkscape:export-ydpi="26.277">
  <defs
     id="defs4" />
  <sodipodi:namedview
     id="base"
     pagecolor="#ffffff"
     bordercolor="#666666"
     borderopacity="1.0"
     inkscape:pageopacity="0.0"
     inkscape:pageshadow="2"
     inkscape:zoom="2.5056493"
     inkscape:cx="52.786565"
     inkscape:cy="39.395887"
     inkscape:document-units="px"
     inkscape:current-layer="layer1"
     showgrid="false"
     inkscape:window-width="1495"
     inkscape:window-height="945"
     inkscape:window-x="2086"
     inkscape:window-y="72"
     inkscape:window-maximized="0"
     fit-margin-top="0"
     fit-margin-left="0"
     fit-margin-right="0"
     fit-margin-bottom="0" />
  <metadata
     id="metadata7">
    <rdf:RDF>
      <cc:Work
         rdf:about="">
        <dc:format>image/svg+xml</dc:format>
        <dc:type
           rdf:resource="http://purl.org/dc/dcmitype/StillImage" />
        <dc:title></dc:title>
      </cc:Work>
    </rdf:RDF>
  </metadata>
  <g
     inkscape:label="Layer 1"
     inkscape:groupmode="layer"
     id="layer1"
     transform="translate(-122.22845,-45.745197)">
    <rect
       style="fill:#3481cb;fill-opacity:0.96862745;stroke:none;stroke-width:3.79999995;stroke-miterlimit:4;stroke-dasharray:none;stroke-opacity:1"
       id="rect4146"
       width="154.05186"
       height="109.60155"
       x="122.22845"
       y="45.74519" />
    <path
       id="path4144-1"
       style="font-style:normal;font-variant:normal;font-weight:normal;font-stretch:normal;font-size:117.16443634px;line-height:125%;font-family:Quicksand;-inkscape-font-specification:Quicksand;letter-spacing:0px;word-spacing:0px;fill:none;fill-opacity:1;stroke:#3076ba;stroke-width:3.79999995;stroke-linecap:butt;stroke-linejoin:miter;stroke-miterlimit:4;stroke-dasharray:none;stroke-opacity:0.96862745"
       d="m 152.97032,71.277464 16.96875,0 c 4.04442,0 7.16405,1.318959 10.0586,4.279297 a 3.3020386,3.3020386 0 0 0 0.0527,0.05273 c 2.96078,2.894978 4.28125,6.015072 4.28125,10.058592 0,4.04353 -1.32726,7.22181 -4.30664,10.20117 -2.8975,2.897497 -6.06449,4.240927 -10.13867,4.306637 l -16.91602,0 0,-28.89843 z m -6.22851,-12.34375 c -1.55195,0 -3.22321,0.684152 -4.32618,1.787109 -1.10298,1.102975 -1.7871,2.774237 -1.7871,4.326172 l 0,76.390625 c 0,1.55194 0.68414,3.22321 1.7871,4.32618 1.10297,1.10296 2.77424,1.7871 4.32618,1.7871 1.5147,0 3.12829,-0.6703 4.22851,-1.7246 1.16971,-1.0663 2,-2.76283 2,-4.38868 l 0,-28.95703 16.96875,-0.19726 c 7.18323,0 13.65748,-2.68092 18.73828,-7.76172 5.14926,-5.14925 7.87891,-11.656863 7.87891,-18.853523 0,-7.255315 -2.72233,-13.775816 -7.87891,-18.855467 -5.0729,-5.149818 -11.55146,-7.878906 -18.73828,-7.878906 l -23.19726,0 z"
       inkscape:export-xdpi="22.992376"
       inkscape:export-ydpi="22.992376"
       inkscape:connector-curvature="0" />
    <path
       style="font-style:normal;font-variant:normal;font-weight:normal;font-stretch:normal;font-size:117.16443634px;line-height:125%;font-family:Quicksand;-inkscape-font-specification:Quicksand;letter-spacing:0px;word-spacing:0px;fill:none;fill-opacity:1;stroke:#2e71b3;stroke-width:3.79999995;stroke-linecap:butt;stroke-linejoin:miter;stroke-miterlimit:4;stroke-dasharray:none;stroke-opacity:0.95100864"
       d="m 265.63634,59.248167 c -1.75015,0.205895 -3.11285,1.243505 -4.07227,2.382812 a 3.3020386,3.3020386 0 0 0 -0.14453,0.183594 l -22.75586,31.248044 -22.75391,-31.248044 0.13086,0.19336 c -0.89972,-1.439586 -2.63322,-2.336814 -4.19336,-2.535157 -1.55489,-0.254881 -3.31409,0.25158 -4.5332,1.210938 -1.31411,0.927102 -2.21446,2.438352 -2.47851,3.890625 a 3.3020386,3.3020386 0 0 0 -0.0371,0.261719 c -0.16274,1.627331 0.45658,3.414395 1.5039,4.611328 l -0.18554,-0.230469 24.94922,34.259773 -24.94922,34.25976 0.14453,-0.18359 c -0.98128,1.16526 -1.78837,2.80281 -1.57422,4.62304 0.21415,1.82024 1.36983,3.21536 2.58789,4.12891 a 3.3020386,3.3020386 0 0 0 0.23047,0.16016 c 1.14948,0.71841 2.52767,1.08593 3.85937,1.08593 1.99242,0 3.93532,-1.47318 4.77344,-3.00976 l -0.23242,0.36719 22.75781,-31.15039 22.75586,31.14453 c 0.97149,1.33579 2.61321,2.64843 4.66211,2.64843 1.31478,0 2.64583,-0.40193 3.74023,-1.08593 a 3.3020386,3.3020386 0 0 0 0.23047,-0.16016 c 1.22395,-0.91796 2.13226,-2.38005 2.42969,-3.86719 0.33481,-1.67403 -0.24119,-3.67603 -1.33984,-4.93164 l 0.17968,0.22461 -25.05273,-34.2539 25.05273,-34.253914 -0.17968,0.22461 c 1.09252,-1.248591 1.66073,-3.234055 1.33789,-4.902344 -0.27607,-1.474344 -1.185,-3.020307 -2.53711,-3.933594 -1.13554,-0.875678 -2.66069,-1.556924 -4.30664,-1.363281 z"
       id="path4161"
       inkscape:connector-curvature="0"
       inkscape:export-xdpi="22.992376"
       inkscape:export-ydpi="22.992376" />
    <path
       style="font-style:normal;font-variant:normal;font-weight:normal;font-stretch:normal;font-size:117.16443634px;line-height:125%;font-family:Quicksand;-inkscape-font-specification:Quicksand;letter-spacing:0px;word-spacing:0px;fill:#ffffff;fill-opacity:0.44956773;stroke:#242a37;stroke-width:3.79999995;stroke-linecap:butt;stroke-linejoin:miter;stroke-miterlimit:4;stroke-dasharray:none;stroke-opacity:0.65706051"
       d="m 259.33166,55.546101 c -1.75015,0.205895 -3.11285,1.243505 -4.07227,2.382812 -0.0503,0.05947 -0.0985,0.12071 -0.14453,0.183594 L 232.359,89.360551 209.60509,58.112507 l 0.13086,0.19336 c -0.89972,-1.439586 -2.63322,-2.336814 -4.19336,-2.535157 -1.55489,-0.254881 -3.31409,0.25158 -4.5332,1.210938 -1.31411,0.927102 -2.21446,2.438352 -2.47851,3.890625 -0.0159,0.08671 -0.0282,0.174019 -0.0371,0.261719 -0.16274,1.627331 0.45658,3.414395 1.5039,4.611328 l -0.18554,-0.230469 24.94922,34.25977 -24.94922,34.259769 0.14453,-0.18359 c -0.98128,1.16526 -1.78837,2.80281 -1.57422,4.62304 0.21415,1.82024 1.36983,3.21536 2.58789,4.12891 0.0745,0.0566 0.15141,0.11006 0.23047,0.16016 1.14948,0.71841 2.52767,1.08593 3.85937,1.08593 1.99242,0 3.93532,-1.47318 4.77344,-3.00976 l -0.23242,0.36719 22.75781,-31.15039 22.75586,31.14453 c 0.97149,1.33579 2.61321,2.64843 4.66211,2.64843 1.31478,0 2.64583,-0.40193 3.74023,-1.08593 0.0791,-0.0501 0.15595,-0.10353 0.23047,-0.16016 1.22395,-0.91796 2.13226,-2.38005 2.42969,-3.86719 0.33481,-1.67403 -0.24119,-3.67603 -1.33984,-4.93164 l 0.17968,0.22461 -25.05273,-34.253909 25.05273,-34.253911 -0.17968,0.22461 c 1.09252,-1.248591 1.66073,-3.234055 1.33789,-4.902344 -0.27607,-1.474344 -1.185,-3.020307 -2.53711,-3.933594 -1.13554,-0.875678 -2.66069,-1.556924 -4.30665,-1.363281 z"
       id="path4173"
       inkscape:connector-curvature="0" />
    <path
       id="path4144"
       style="font-style:normal;font-variant:normal;font-weight:normal;font-stretch:normal;font-size:117.16443634px;line-height:125%;font-family:Quicksand;-inkscape-font-specification:Quicksand;letter-spacing:0px;word-spacing:0px;fill:#ffffff;fill-opacity:0.46685881;stroke:#242a37;stroke-width:3.79999995;stroke-linecap:butt;stroke-linejoin:miter;stroke-miterlimit:4;stroke-dasharray:none;stroke-opacity:0.64841494"
       d="m 145.46834,67.575408 16.96875,0 c 4.04442,0 7.16405,1.318959 10.0586,4.279297 0.0174,0.01777 0.0349,0.03535 0.0527,0.05273 2.96078,2.894978 4.28125,6.015076 4.28125,10.058596 0,4.04353 -1.32726,7.22181 -4.30664,10.20117 -2.8975,2.8975 -6.06449,4.24093 -10.13867,4.30664 l -16.91602,0 0,-28.898437 z m -6.22851,-12.34375 c -1.55195,0 -3.22321,0.684152 -4.32618,1.787109 -1.10298,1.102975 -1.7871,2.774237 -1.7871,4.326172 l 0,76.390621 c 0,1.55194 0.68414,3.22321 1.7871,4.32618 1.10297,1.10296 2.77424,1.7871 4.32618,1.7871 1.5147,0 3.12829,-0.6703 4.22851,-1.7246 1.16971,-1.0663 2,-2.76283 2,-4.38868 l 0,-28.95703 16.96875,-0.19726 c 7.18323,0 13.65748,-2.68092 18.73828,-7.76172 5.14926,-5.149249 7.87891,-11.656859 7.87891,-18.853519 0,-7.255315 -2.72233,-13.775816 -7.87891,-18.855467 -5.0729,-5.149818 -11.55146,-7.878906 -18.73828,-7.878906 z"
       inkscape:connector-curvature="0" />
  </g>
</svg>
