<?xml version="1.0" encoding="UTF-8" standalone="no"?>
<!-- Created with Inkscape (http://www.inkscape.org/) -->

<svg
   xmlns:dc="http://purl.org/dc/elements/1.1/"
   xmlns:cc="http://creativecommons.org/ns#"
   xmlns:rdf="http://www.w3.org/1999/02/22-rdf-syntax-ns#"
   xmlns:svg="http://www.w3.org/2000/svg"
   xmlns="http://www.w3.org/2000/svg"
   xmlns:sodipodi="http://sodipodi.sourceforge.net/DTD/sodipodi-0.dtd"
   xmlns:inkscape="http://www.inkscape.org/namespaces/inkscape"
   width="107.00265mm"
   height="31.031164mm"
   viewBox="0 0 379.14325 109.95294"
   id="svg2"
   version="1.1"
   inkscape:version="0.91 r13725"
   sodipodi:docname="plexo_2.svg"
   inkscape:export-filename="/home/dcantor/www/plexo/plexo.png"
   inkscape:export-xdpi="20.528908"
   inkscape:export-ydpi="20.528908">
  <defs
     id="defs4">
    <filter
       inkscape:label="Button"
       inkscape:menu="Bevels"
       inkscape:menu-tooltip="Soft bevel, slightly depressed middle"
       style="color-interpolation-filters:sRGB"
       id="filter4155">
      <feGaussianBlur
         stdDeviation="2.3"
         in="SourceAlpha"
         result="result0"
         id="feGaussianBlur4157" />
      <feMorphology
         in="SourceAlpha"
         radius="6.6"
         result="result1"
         id="feMorphology4159" />
      <feGaussianBlur
         stdDeviation="8.9"
         in="result1"
         id="feGaussianBlur4161" />
      <feColorMatrix
         values="1 0 0 0 0 0 1 0 0 0 0 0 1 0 0 0 0 0 0.3 0"
         result="result91"
         id="feColorMatrix4163" />
      <feComposite
         in="result0"
         operator="out"
         result="result2"
         in2="result91"
         id="feComposite4165" />
      <feGaussianBlur
         stdDeviation="1.7"
         result="result4"
         id="feGaussianBlur4167" />
      <feDiffuseLighting
         surfaceScale="10"
         id="feDiffuseLighting4169">
        <feDistantLight
           azimuth="225"
           elevation="45"
           id="feDistantLight4171" />
      </feDiffuseLighting>
      <feBlend
         in2="SourceGraphic"
         mode="multiply"
         id="feBlend4173" />
      <feComposite
         in2="SourceAlpha"
         operator="in"
         result="result3"
         id="feComposite4175" />
      <feSpecularLighting
         in="result4"
         surfaceScale="5"
         specularExponent="17.89999962"
         id="feSpecularLighting4177">
        <feDistantLight
           azimuth="225"
           elevation="45"
           id="feDistantLight4179" />
      </feSpecularLighting>
      <feComposite
         in2="result3"
         operator="atop"
         id="feComposite4181" />
    </filter>
    <filter
       inkscape:label="Button"
       inkscape:menu="Bevels"
       inkscape:menu-tooltip="Soft bevel, slightly depressed middle"
       style="color-interpolation-filters:sRGB"
       id="filter4455">
      <feGaussianBlur
         stdDeviation="2.3"
         in="SourceAlpha"
         result="result0"
         id="feGaussianBlur4457" />
      <feMorphology
         in="SourceAlpha"
         radius="6.6"
         result="result1"
         id="feMorphology4459" />
      <feGaussianBlur
         stdDeviation="8.9"
         in="result1"
         id="feGaussianBlur4461" />
      <feColorMatrix
         values="1 0 0 0 0 0 1 0 0 0 0 0 1 0 0 0 0 0 0.3 0"
         result="result91"
         id="feColorMatrix4463" />
      <feComposite
         in="result0"
         operator="out"
         result="result2"
         in2="result91"
         id="feComposite4465" />
      <feGaussianBlur
         stdDeviation="1.7"
         result="result4"
         id="feGaussianBlur4467" />
      <feDiffuseLighting
         surfaceScale="10"
         id="feDiffuseLighting4469">
        <feDistantLight
           azimuth="225"
           elevation="45"
           id="feDistantLight4471" />
      </feDiffuseLighting>
      <feBlend
         in2="SourceGraphic"
         mode="multiply"
         id="feBlend4473" />
      <feComposite
         in2="SourceAlpha"
         operator="in"
         result="result3"
         id="feComposite4475" />
      <feSpecularLighting
         in="result4"
         surfaceScale="5"
         specularExponent="17.89999962"
         id="feSpecularLighting4477">
        <feDistantLight
           azimuth="225"
           elevation="45"
           id="feDistantLight4479" />
      </feSpecularLighting>
      <feComposite
         in2="result3"
         operator="atop"
         id="feComposite4481" />
    </filter>
  </defs>
  <sodipodi:namedview
     id="base"
     pagecolor="#ffffff"
     bordercolor="#ff4c4c"
     borderopacity="1"
     inkscape:pageopacity="0.0"
     inkscape:pageshadow="2"
     inkscape:zoom="1.2528247"
     inkscape:cx="248.60136"
     inkscape:cy="228.18638"
     inkscape:document-units="px"
     inkscape:current-layer="layer1"
     showgrid="false"
     inkscape:window-width="1855"
     inkscape:window-height="1056"
     inkscape:window-x="65"
     inkscape:window-y="24"
     inkscape:window-maximized="1"
     fit-margin-top="0"
     fit-margin-left="0"
     fit-margin-right="0"
     fit-margin-bottom="0"
     borderlayer="true" />
  <metadata
     id="metadata7">
    <rdf:RDF>
      <cc:Work
         rdf:about="">
        <dc:format>image/svg+xml</dc:format>
        <dc:type
           rdf:resource="http://purl.org/dc/dcmitype/StillImage" />
        <dc:title></dc:title>
      </cc:Work>
    </rdf:RDF>
  </metadata>
  <g
     inkscape:label="Layer 1"
     inkscape:groupmode="layer"
     id="layer1"
     transform="translate(-127.41673,-42.330364)">
    <rect
       style="fill:#ffffff;fill-opacity:1;stroke:none;stroke-width:3.79999995;stroke-miterlimit:4;stroke-dasharray:none;stroke-opacity:1"
       id="rect4146"
       width="379.14325"
       height="109.95294"
       x="127.41673"
       y="42.330364" />
    <path
       sodipodi:type="inkscape:offset"
       inkscape:radius="3.3017085"
       inkscape:original="M 463.11719 82.533203 C 452.18184 82.533203 442.88717 86.595349 435.23242 94.71875 C 427.57768 102.76404 423.71092 112.56673 423.63281 124.12695 C 423.71092 135.68718 427.57768 145.52894 435.23242 153.65234 C 442.88717 161.69764 452.18184 165.7207 463.11719 165.7207 C 474.13064 165.7207 483.42727 161.69764 491.00391 153.65234 C 498.58054 145.52894 502.40627 135.68718 502.48438 124.12695 C 502.40627 112.56673 498.58054 102.76404 491.00391 94.71875 C 483.42727 86.595349 474.13064 82.533203 463.11719 82.533203 z M 141.97266 83.705078 C 141.19156 83.705078 140.52724 83.978623 139.98047 84.525391 C 139.4337 85.072158 139.16016 85.736482 139.16016 86.517578 L 139.16016 162.9082 C 139.16016 163.6893 139.4337 164.35362 139.98047 164.90039 C 140.52724 165.44716 141.19156 165.7207 141.97266 165.7207 C 142.75375 165.7207 143.41612 165.44716 143.96289 164.90039 C 144.58777 164.35362 144.90039 163.6893 144.90039 162.9082 L 144.90039 130.6875 L 165.16992 130.45312 C 171.57491 130.45312 177.04386 128.18856 181.57422 123.6582 C 186.18269 119.04974 188.48633 113.54366 188.48633 107.13867 C 188.48633 100.65557 186.18269 95.147546 181.57422 90.617188 C 177.04386 86.00872 171.57491 83.705078 165.16992 83.705078 L 141.97266 83.705078 z M 210.16602 83.705078 C 209.38492 83.705078 208.7206 83.978623 208.17383 84.525391 C 207.62706 85.072158 207.35352 85.736482 207.35352 86.517578 L 207.35352 162.9082 C 207.35352 163.6893 207.62706 164.35362 208.17383 164.90039 C 208.7206 165.44716 209.38492 165.7207 210.16602 165.7207 L 252.34375 165.7207 C 253.12485 165.7207 253.78917 165.44716 254.33594 164.90039 C 254.96081 164.35362 255.27344 163.6893 255.27344 162.9082 C 255.27344 162.12711 254.96081 161.46278 254.33594 160.91602 C 253.78917 160.29114 253.12485 159.97852 252.34375 159.97852 L 213.09375 159.97852 L 213.09375 86.517578 C 213.09375 85.736482 212.78113 85.072158 212.15625 84.525391 C 211.60948 83.978623 210.94711 83.705078 210.16602 83.705078 z M 276.07031 83.705078 C 275.28922 83.705078 274.62489 83.978623 274.07812 84.525391 C 273.53136 85.072158 273.25781 85.736482 273.25781 86.517578 L 273.25781 162.9082 C 273.25781 163.6893 273.49228 164.35362 273.96094 164.90039 C 274.5077 165.36905 275.13295 165.64259 275.83594 165.7207 L 318.25 165.7207 C 319.0311 165.7207 319.69542 165.44716 320.24219 164.90039 C 320.78895 164.35362 321.06055 163.6893 321.06055 162.9082 C 321.06055 162.049 320.78895 161.3456 320.24219 160.79883 C 319.69542 160.25206 319.0311 159.97852 318.25 159.97852 L 279 159.97852 L 279 127.64258 L 313.32812 127.64258 C 314.10922 127.64258 314.77355 127.36903 315.32031 126.82227 C 315.86708 126.2755 316.14062 125.61117 316.14062 124.83008 C 316.14062 124.04898 315.86708 123.38466 315.32031 122.83789 C 314.77355 122.21301 314.10922 121.90039 313.32812 121.90039 L 279 121.90039 L 279 89.447266 L 318.25 89.447266 C 319.0311 89.447266 319.69542 89.17372 320.24219 88.626953 C 320.78895 88.080186 321.06055 87.415862 321.06055 86.634766 C 321.06055 85.77556 320.78895 85.072158 320.24219 84.525391 C 319.69542 83.978623 319.0311 83.705078 318.25 83.705078 L 276.07031 83.705078 z M 397.25391 83.998047 C 396.58997 84.076156 395.94519 84.486474 395.32031 85.228516 L 369.89453 120.14258 L 344.4707 85.228516 C 344.08016 84.603639 343.45491 84.251938 342.5957 84.173828 C 341.81461 84.017609 341.11121 84.212998 340.48633 84.759766 C 339.86145 85.150314 339.47067 85.77556 339.31445 86.634766 C 339.23634 87.415862 339.47081 88.119264 340.01758 88.744141 L 366.38086 124.94727 L 340.01758 161.15039 C 338.76782 162.63447 338.92414 163.96312 340.48633 165.13477 C 341.11121 165.52531 341.81461 165.7207 342.5957 165.7207 C 343.3768 165.7207 344.00205 165.29085 344.4707 164.43164 L 369.89453 129.63281 L 395.32031 164.43164 C 395.94519 165.29085 396.60951 165.7207 397.3125 165.7207 C 398.01549 165.7207 398.67786 165.52531 399.30273 165.13477 C 399.92761 164.66611 400.31839 164.04086 400.47461 163.25977 C 400.63083 162.47867 400.43544 161.77527 399.88867 161.15039 L 373.41016 124.94727 L 399.88867 88.744141 C 400.43544 88.119264 400.63083 87.415862 400.47461 86.634766 C 400.31839 85.77556 399.92761 85.150314 399.30273 84.759766 C 398.59975 84.173943 397.91784 83.919937 397.25391 83.998047 z M 463 88.392578 C 472.29505 88.392578 480.18487 91.829478 486.66797 98.703125 C 493.22918 105.57677 496.54884 114.05081 496.62695 124.12695 C 496.54884 134.04688 493.22918 142.52092 486.66797 149.55078 C 480.10676 156.50254 472.21694 159.97852 463 159.97852 C 453.78306 159.97852 445.85611 156.50254 439.2168 149.55078 C 432.65559 142.59902 429.375 134.12499 429.375 124.12695 C 429.375 114.05081 432.65559 105.57677 439.2168 98.703125 C 445.85611 91.829478 453.78306 88.392578 463 88.392578 z M 144.90039 89.447266 L 165.16992 89.447266 C 170.01272 89.447266 174.15302 91.203817 177.58984 94.71875 C 181.10478 98.155573 182.86328 102.29588 182.86328 107.13867 C 182.86328 111.98147 181.10478 116.1589 177.58984 119.67383 C 174.15302 123.11065 170.01272 124.86916 165.16992 124.94727 L 144.90039 124.94727 L 144.90039 89.447266 z "
       style="font-style:normal;font-variant:normal;font-weight:normal;font-stretch:normal;font-size:117.16443634px;line-height:125%;font-family:Quicksand;-inkscape-font-specification:Quicksand;letter-spacing:0px;word-spacing:0px;fill:#e2f1f8;fill-opacity:1;stroke:#2080a2;stroke-width:3.79999995;stroke-linecap:butt;stroke-linejoin:miter;stroke-miterlimit:4;stroke-dasharray:none;stroke-opacity:1"
       id="path4144"
       d="m 463.11719,79.232422 c -11.75208,0 -22.09262,4.527614 -30.28516,13.220703 -6.5e-4,6.89e-4 -0.001,0.0013 -0.002,0.002 -8.18815,8.611432 -12.41509,19.371942 -12.49805,31.650392 a 3.3020386,3.3020386 0 0 0 0,0.043 c 0.083,12.28377 4.31109,23.07937 12.49805,31.76758 a 3.3020386,3.3020386 0 0 0 0.01,0.0117 c 8.19588,8.61404 18.53221,13.09375 30.27735,13.09375 11.81749,0 22.16684,-4.47877 30.29101,-13.10546 a 3.3020386,3.3020386 0 0 0 0.01,-0.0117 c 8.10576,-8.69072 12.28424,-19.4799 12.36719,-31.75586 a 3.3020386,3.3020386 0 0 0 0,-0.043 c -0.0829,-12.27062 -4.26018,-23.02465 -12.36719,-31.638673 l -0.002,-0.002 C 485.29529,83.759136 474.94155,79.232422 463.11719,79.232422 Z m -321.14453,1.171875 c -1.55195,0 -3.22321,0.684152 -4.32618,1.787109 -1.10298,1.102975 -1.7871,2.774237 -1.7871,4.326172 l 0,76.390622 c 0,1.55194 0.68414,3.22321 1.7871,4.32618 1.10297,1.10296 2.77424,1.7871 4.32618,1.7871 1.5147,0 3.12829,-0.6703 4.22851,-1.7246 1.16971,-1.0663 2,-2.76283 2,-4.38868 l 0,-28.95703 16.96875,-0.19726 c 7.18323,0 13.65748,-2.68092 18.73828,-7.76172 5.14926,-5.14925 7.87891,-11.65686 7.87891,-18.85352 0,-7.255315 -2.72233,-13.775816 -7.87891,-18.855467 -5.0729,-5.149818 -11.55146,-7.878906 -18.73828,-7.878906 l -23.19726,0 z m 68.19336,0 c -1.55195,0 -3.22321,0.684152 -4.32618,1.787109 -1.10298,1.102975 -1.78711,2.774237 -1.78711,4.326172 l 0,76.390622 c 0,1.55194 0.68414,3.22321 1.78711,4.32618 1.10297,1.10296 2.77424,1.7871 4.32618,1.7871 l 42.17773,0 c 1.51475,0 3.1277,-0.66779 4.23047,-1.7246 1.16968,-1.06629 2,-2.7628 2,-4.38868 0,-1.58837 -0.80507,-3.22829 -1.93164,-4.29882 -1.07054,-1.12658 -2.71048,-1.93165 -4.29883,-1.93165 l -35.94922,0 0,-70.160152 c 0,-1.625851 -0.83028,-3.32237 -2,-4.388672 -1.10021,-1.054296 -2.71379,-1.724609 -4.22851,-1.724609 z m 65.90429,0 c -1.55195,0 -3.22319,0.684138 -4.32617,1.787109 -1.10294,1.102959 -1.78711,2.774209 -1.78711,4.326172 l 0,76.390622 c 0,1.44184 0.52157,3.00368 1.49609,4.14063 a 3.3020386,3.3020386 0 0 0 0.35938,0.35742 c 1.00911,0.86496 2.32791,1.44789 3.6582,1.5957 a 3.3020386,3.3020386 0 0 0 0.36524,0.0195 l 42.41406,0 c 1.55194,0 3.2232,-0.68414 4.32617,-1.7871 1.10571,-1.10573 1.78516,-2.77971 1.78516,-4.32618 0,-1.55499 -0.62383,-3.282 -1.78516,-4.44336 -1.10297,-1.10297 -2.77423,-1.78711 -4.32617,-1.78711 l -35.94922,0 0,-25.73437 31.02734,0 c 1.55197,0 3.22321,-0.68414 4.32618,-1.78711 1.10298,-1.10298 1.78711,-2.77424 1.78711,-4.32617 0,-1.51475 -0.6678,-3.1277 -1.72461,-4.23047 -1.06631,-1.16974 -2.76282,-2 -4.38868,-2 l -31.02734,0 0,-25.851563 35.94922,0 c 1.55195,0 3.22321,-0.684156 4.32617,-1.787109 1.10572,-1.105735 1.78516,-2.779704 1.78516,-4.326172 0,-1.554999 -0.62382,-3.282005 -1.78516,-4.44336 -1.10296,-1.102957 -2.77422,-1.787109 -4.32617,-1.787109 l -42.17969,0 z m 120.79688,0.314453 c -1.75015,0.205895 -3.11285,1.243505 -4.07227,2.382812 a 3.3020386,3.3020386 0 0 0 -0.14453,0.183594 l -22.75586,31.248044 -22.75391,-31.248044 0.13086,0.19336 c -0.89972,-1.439586 -2.63322,-2.336814 -4.19336,-2.535157 -1.55489,-0.254881 -3.31409,0.25158 -4.5332,1.210938 -1.31411,0.927102 -2.21446,2.438352 -2.47851,3.890625 a 3.3020386,3.3020386 0 0 0 -0.0371,0.261719 c -0.16274,1.627331 0.45658,3.414395 1.5039,4.611328 l -0.18554,-0.230469 24.94922,34.25977 -24.94922,34.25976 0.14453,-0.18359 c -0.98128,1.16526 -1.78837,2.80281 -1.57422,4.62304 0.21415,1.82024 1.36983,3.21536 2.58789,4.12891 a 3.3020386,3.3020386 0 0 0 0.23047,0.16016 c 1.14948,0.71841 2.52767,1.08593 3.85937,1.08593 1.99242,0 3.93532,-1.47318 4.77344,-3.00976 l -0.23242,0.36719 22.75781,-31.15039 22.75586,31.14453 c 0.97149,1.33579 2.61321,2.64843 4.66211,2.64843 1.31478,0 2.64583,-0.40193 3.74023,-1.08593 a 3.3020386,3.3020386 0 0 0 0.23047,-0.16016 c 1.22395,-0.91796 2.13226,-2.38005 2.42969,-3.86719 0.33481,-1.67403 -0.24119,-3.67603 -1.33984,-4.93164 l 0.17968,0.22461 -25.05273,-34.2539 25.05273,-34.253911 -0.17968,0.22461 c 1.09252,-1.248591 1.66073,-3.234055 1.33789,-4.902344 -0.27607,-1.474344 -1.185,-3.020307 -2.53711,-3.933594 -1.13554,-0.875678 -2.66069,-1.556924 -4.30664,-1.363281 z M 463,91.693359 c 8.48117,0 15.32302,2.974794 21.26562,9.275391 a 3.3020386,3.3020386 0 0 0 0.0137,0.0137 c 6.00374,6.28963 8.96691,13.79156 9.04492,23.14453 -0.0779,9.18365 -3.03835,16.70501 -9.06641,23.16602 -0.002,0.002 -0.002,0.004 -0.004,0.006 -6.02805,6.38032 -12.87354,9.3789 -21.25391,9.3789 -8.38683,0 -15.28214,-3.00815 -21.39453,-9.4082 -6.00963,-6.3741 -8.92969,-13.87389 -8.92969,-23.14258 0,-9.35689 2.92424,-16.84888 8.92578,-23.13867 0.002,-0.002 0.002,-0.004 0.004,-0.006 6.10557,-6.314675 13.00482,-9.289061 21.39453,-9.289061 z m -314.79883,1.054688 16.96875,0 c 4.04442,0 7.16405,1.318959 10.0586,4.279297 a 3.3020386,3.3020386 0 0 0 0.0527,0.05273 c 2.96078,2.894978 4.28125,6.015072 4.28125,10.058592 0,4.04353 -1.32726,7.22181 -4.30664,10.20117 -2.8975,2.8975 -6.06449,4.24093 -10.13867,4.30664 l -16.91602,0 0,-28.898433 z"
       transform="translate(-3.5355339,-26.769042)"
       inkscape:export-xdpi="20.528908"
       inkscape:export-ydpi="20.528908" />
    <path
       style="fill:#3bafda;fill-opacity:1;stroke:#2080a2;stroke-width:1.39684355;stroke-linecap:round;stroke-linejoin:miter;stroke-miterlimit:4;stroke-dasharray:none;stroke-dashoffset:0.19199999;stroke-opacity:1"
       d="m 76.418937,96.546632 -1.166595,-1.166592 0,-39.771667 0,-39.771666 1.166595,-1.166594 c 1.642766,-1.642767 4.006007,-1.642767 5.648773,0 l 1.166595,1.166594 0,36.947279 0,36.947279 19.795265,0 19.79527,0 1.35694,1.356934 c 1.49322,1.493221 1.71498,2.779479 0.78821,4.571657 -0.31279,0.604877 -1.03962,1.314338 -1.61517,1.576573 -0.77154,0.351542 -6.92094,0.476799 -23.407871,0.476799 l -22.361418,0 -1.166594,-1.166596 z"
       id="path4564"
       inkscape:connector-curvature="0"
       transform="translate(127.41673,42.330364)" />
    <path
       style="fill:#3bafda;fill-opacity:1;stroke:#2080a2;stroke-width:1.39684355;stroke-linecap:round;stroke-linejoin:miter;stroke-miterlimit:4;stroke-dasharray:none;stroke-dashoffset:0.19199999;stroke-opacity:1"
       d="m 8.3258825,96.750036 -1.1197751,-0.963187 0,-40.178476 0,-40.178475 1.1197751,-0.96319 1.1197751,-0.96319 14.0459544,0.0059 c 15.743777,0.0066 17.19678,0.182082 21.878154,2.642074 5.589268,2.937077 10.104221,8.253776 12.155235,14.313699 1.360426,4.019515 1.537625,10.13756 0.404574,13.968435 -2.326124,7.864691 -8.220959,14.128673 -15.87949,16.87389 -2.818128,1.010165 -3.31848,1.054165 -14.88907,1.309297 -6.58512,0.145204 -12.017843,0.288951 -12.072719,0.319442 -0.05488,0.03049 -0.09977,7.342815 -0.09977,16.249608 l 0,16.194178 -1.166594,1.166592 c -1.53095,1.530949 -3.8527832,1.616878 -5.4960445,0.203404 z M 38.34774,53.992093 c 4.426712,-1.153013 8.851614,-4.919962 10.891361,-9.27189 0.957332,-2.042524 1.069607,-2.743768 1.069607,-6.68054 0,-4.15129 -0.07253,-4.545791 -1.290536,-7.019921 -1.632535,-3.316154 -4.79837,-6.358449 -8.384191,-8.057019 l -2.697316,-1.277693 -11.374297,0 -11.374298,0 -0.104441,15.963262 c -0.05744,8.779794 -0.01818,16.188053 0.08725,16.4628 0.306667,0.799159 20.040813,0.69784 23.176862,-0.118999 z"
       id="path4566"
       inkscape:connector-curvature="0"
       transform="translate(127.41673,42.330364)" />
    <path
       style="fill:#3bafda;fill-opacity:1;stroke:#2080a2;stroke-width:1.39684355;stroke-linecap:round;stroke-linejoin:miter;stroke-miterlimit:4;stroke-dasharray:none;stroke-dashoffset:0.19199999;stroke-opacity:1"
       d="m 142.26445,96.540949 -1.17228,-1.172275 0.10546,-39.969456 0.10546,-39.969452 1.11977,-0.963124 1.11978,-0.963124 22.55302,0 c 14.70502,0 22.82022,0.142995 23.32086,0.410929 0.91569,0.49006 1.97338,2.408905 1.97338,3.580053 0,1.155694 -1.02063,3.024328 -1.88095,3.443745 -0.39225,0.191228 -9.6031,0.437484 -20.46854,0.547236 l -19.75536,0.199549 -0.10462,14.854205 -0.10462,14.854204 17.32407,0.111976 c 16.67587,0.107787 17.35755,0.141842 18.21889,0.910173 0.49215,0.439008 1.14184,1.381877 1.44375,2.095265 0.46867,1.107458 0.46556,1.49657 -0.0213,2.661789 -1.01858,2.437799 -0.79356,2.40764 -19.59496,2.626262 l -17.16122,0.199549 0,14.766631 0,14.766632 19.75536,0.199549 c 14.90151,0.15052 19.97253,0.32372 20.63926,0.704935 1.27887,0.731212 1.96891,3.294431 1.31311,4.877666 -1.03577,2.500637 0.0138,2.399362 -24.86554,2.399362 l -22.69049,0 -1.17228,-1.172279 z"
       id="path4568"
       inkscape:connector-curvature="0"
       transform="translate(127.41673,42.330364)" />
    <path
       style="fill:#3bafda;fill-opacity:1;stroke:#2080a2;stroke-width:1.39684355;stroke-linecap:round;stroke-linejoin:miter;stroke-miterlimit:4;stroke-dasharray:none;stroke-dashoffset:0.19199999;stroke-opacity:1"
       d="m 208.31167,96.356294 c -1.40339,-1.403385 -1.66696,-2.506332 -0.92863,-3.885923 0.23557,-0.440169 6.26151,-8.804724 13.39097,-18.587904 7.12946,-9.783177 12.87156,-18.024993 12.76022,-18.315141 -0.11134,-0.290149 -5.95453,-8.416461 -12.98486,-18.058474 -7.03033,-9.642012 -12.96399,-18.008495 -13.18591,-18.592182 -0.44952,-1.182326 0.18603,-3.22007 1.28978,-4.135395 0.99146,-0.822203 3.25139,-1.029051 4.43981,-0.406371 0.6346,0.332496 5.99601,7.326529 13.26462,17.30388 6.70975,9.210202 12.33613,16.796883 12.50308,16.85929 0.16695,0.06241 5.70295,-7.300954 12.30224,-16.363025 6.59928,-9.06207 12.41761,-16.853816 12.92961,-17.314991 1.29859,-1.16968 2.15938,-1.400563 3.42874,-0.919661 2.4943,0.944976 3.91085,3.642117 2.90245,5.526329 -0.25284,0.472439 -6.30032,8.845554 -13.43885,18.606923 l -12.97913,17.747942 1.35947,1.888884 c 0.74772,1.038884 5.82819,7.995081 11.28995,15.458217 14.23184,19.446899 14.15521,19.336269 14.15521,20.434144 0,3.082574 -3.81565,5.226957 -6.25744,3.516662 -0.46622,-0.326555 -6.36129,-8.147769 -13.10016,-17.380473 -6.73887,-9.232709 -12.40559,-16.732977 -12.59272,-16.667265 -0.18713,0.06571 -5.85351,7.662433 -12.59196,16.8816 -6.73845,9.219167 -12.53855,16.980904 -12.88912,17.248304 -0.35056,0.267396 -1.32882,0.491888 -2.17391,0.498873 -1.22459,0.0101 -1.81201,-0.262787 -2.89346,-1.344243 z"
       id="path4570"
       inkscape:connector-curvature="0"
       transform="translate(127.41673,42.330364)" />
    <path
       style="fill:#3bafda;fill-opacity:1;stroke:#2080a2;stroke-width:1.39684355;stroke-linecap:round;stroke-linejoin:miter;stroke-miterlimit:4;stroke-dasharray:none;stroke-dashoffset:0.19199999;stroke-opacity:1"
       d="m 325.13303,97.286041 c -3.47285,-0.614088 -9.20712,-2.681145 -12.25811,-4.418723 -5.70237,-3.247577 -11.74573,-9.234464 -15.17985,-15.038014 -2.26032,-3.819856 -3.63489,-7.104861 -4.83219,-11.548172 -0.95299,-3.536645 -1.04769,-4.555466 -1.04769,-11.271406 0,-6.709541 0.0953,-7.736804 1.04401,-11.256888 2.01305,-7.469023 5.64369,-13.869927 10.95167,-19.308075 5.30465,-5.434735 11.44602,-9.133617 18.28368,-11.01207 2.68688,-0.738145 4.26783,-0.880459 9.97745,-0.898149 5.8734,-0.0182 7.23672,0.101982 10.15033,0.894765 7.0552,1.919695 12.23313,5.006958 17.7989,10.612315 5.83838,5.879901 9.29028,11.927587 11.41157,19.992903 0.83896,3.189775 0.94263,4.440778 0.9261,11.174748 -0.017,6.906968 -0.11218,7.928137 -1.06836,11.456436 -3.29183,12.146907 -11.5366,22.297106 -22.28545,27.435814 -5.29202,2.529951 -8.76102,3.287579 -15.73579,3.436682 -3.29256,0.07039 -6.95389,-0.04309 -8.13627,-0.252166 z m 11.32905,-7.968517 c 10.619,-1.512558 19.88456,-8.732803 24.75819,-19.292972 5.68659,-12.321684 3.58356,-28.013648 -5.10033,-38.056672 -6.71727,-7.768599 -14.19592,-11.275003 -24.04794,-11.275003 -9.99872,0 -18.32328,4.013616 -24.84276,11.977734 -9.85181,12.034849 -10.10343,31.354355 -0.57205,43.922307 7.36587,9.712528 18.26963,14.367673 29.80489,12.724606 z"
       id="path4572"
       inkscape:connector-curvature="0"
       transform="translate(127.41673,42.330364)" />
  </g>
</svg>
